# xmcd
#
# Track frame offsets:
#	150
#	70100
#	124767
#	222170
#	264255
#
# Disc length: 4399 seconds
#
# Revision: 1
# Processed by: cddbd v1.5.2PL0 Copyright (c) Steve Scherf et al.
# Submitted via: audiograbber 1.83.01
#
DISCID=42112d05
DTITLE=Kempowski, Walter - Schöne Aussicht - CD 3
DYEAR=1900
DGENRE=
TTITLE0=Musik, Kapitel 3, Abschnitt 1
TTITLE1=Abschnitt 2
TTITLE2=Abschnitt 3
TTITLE3=Abschnitt 4
TTITLE4=Abschnitt 5
EXTD=
EXTT0=
EXTT1=
EXTT2=
EXTT3=
EXTT4=
PLAYORDER=
